<?xml version="1.0" encoding="UTF-8"?>
<svg version="1.1" viewBox="0 0 2048 1092" width="684" height="365" xmlns="http://www.w3.org/2000/svg">
<path transform="translate(525,36)" d="m0 0h343l8 4 4 5 2 5v9l-8 16-10 18-15 28-20 36-7 8-4 2h-13l-5-3-5-6-1-3v-11l8-16 15-28 11-21 2-6h-266l8 16 17 28 17 29 11 18 13 22 9 15 17 28 17 29 17 28 16 27 27 45 19 32 48 80 19 32 17 28 13 22 11 18 4 4 7-10 13-22 10-17 11-18 15-25 17-28 15-26 34-56 17-29 17-28 10-17 15-25 17-28 17-29 66-110 16-27 2-5-5-1h-116l-5 5-12 20-13 22-15 26-12 20-15 26-26 44-17 29-13 22-8 9-6 2h-9l-6-3-5-5-2-6v-8l8-16 10-17 16-27 28-48 12-20 28-48 17-29 10-17 8-12 9-6h178l7 3 6 7 1 3v10l-7 14-9 14-9 16-13 21-13 22-19 32-17 28-17 29-13 21-17 29-17 28-10 17-1 5 13 23 14 23 15 25 19 32 17 28 13 22 9 15 19 32 10 16 9 15 5 7h2l10-15 17-29 17-28 13-22 12-20 16-27 12-20 17-28 16-27 15-25 13-22 17-28 13-22 24-40 16-27 17-28 19-32 33-55 2-5h-122l-5 5-15 26-19 32-17 29-16 27-15 26-13 22-17 29-10 17-5 7-10 5h-8l-8-4-5-8v-12l9-17 15-25 15-26 13-22 10-17 17-29 16-27 15-26 24-40 7-7 4-2h178l7 3 5 5 3 7-1 9-6 11-17 29-17 28-19 32-27 45-19 32-13 21-15 26-13 21-16 27-12 20-17 28-15 26-10 16-19 32-12 20-17 28-17 29-17 28-9 15-19 32-11 18-6 5-5 2h-9l-8-5-7-10-10-17-15-25-16-27-17-28-17-29-8-13-19-32-17-28-15-26-10-16-2-3-3 1-16 27-19 32-16 26-17 29-17 28-12 20-16 27-17 28-17 29-9 10-4 2h-10l-6-3-7-8-17-29-17-28-10-17-12-20-8-13-17-29-17-28-19-32-17-28-35-59-13-21-17-29-14-23-16-27-18-30-17-28-17-29-17-28-13-22-21-35-3-6v-9l4-8 7-5z" fill="#FEFEFE"/>
<path transform="translate(158,763)" d="m0 0h27l4 9 9 30 14 49 6 20v2h2l3-9 13-38 16-51 4-3h18l4 6 9 27 14 44 8 23 2 1 1-6 7-21 23-80 3-3h25l2 1-4 16-12 40-26 86-4 11-2 2h-24l-4-6-14-44-15-42-2-7h-2l-3 11-15 46-8 25-5 13-3 4h-24l-3-4-12-40-10-33-21-69-2-9z" fill="#FEFEFE"/>
<path transform="translate(534,763)" d="m0 0h52l15 1 12 4 10 6 7 7 5 10 2 9v10l-3 10-7 11-5 5 11 9 7 10 3 7 1 5v15l-4 13-7 9-8 7-11 5-14 3h-66l-1-1v-154zm36 25-9 1-1 5v24l1 7 2 1h32l9-3 5-6 2-5v-9l-4-8-10-6-6-1zm-8 62-2 4v28l1 9 1 1h40l8-4 5-6 2-8v-7l-4-9-8-6-7-2z" fill="#FEFEFE"/>
<path transform="translate(1814,761)" d="m0 0h20l16 3 16 8 8 6 7 7 9 14 5 13 3 15 1 16-2 19-5 16-7 14-9 11-13 9-10 5-16 4h-28l-16-4-15-8-11-10-10-15-6-16-3-17v-18l3-18 5-14 6-11 9-10 9-8 14-7 12-3zm2 25-12 3-9 6-7 7-7 13-3 13-1 18 2 15 5 13 6 9 9 8 9 4 12 2h8l10-2 12-6 6-5 6-9 4-10 3-14v-20l-3-14-5-12-7-9-11-7-11-3z" fill="#FEFEFE"/>
<path transform="translate(1282,763)" d="m0 0h42l19 1 14 4 12 7 8 8 6 12 1 4v18l-3 10-7 10-10 8-8 5 2 6 11 17 13 21 12 19 1 6h-29l-7-9-15-27-14-24-4-5-2-1h-16v65l-1 1h-26l-1-1v-154zm30 25-4 2-1 7v13l1 16 1 3 2 1h27l10-4 5-4 3-6 1-8-3-9-5-6-9-4-5-1z" fill="#FEFEFE"/>
<path transform="translate(1146,763)" d="m0 0h98l2 1 1 4v10l-1 9-4 2h-71v16l1 22 6 1 62 1 1 1v16l-1 7-3 1h-66v27l1 11 74 1 1 2v15l-1 8-1 1h-101l-2-7v-142l2-6z" fill="#FEFEFE"/>
<path transform="translate(398,763)" d="m0 0h100l1 1v23l-4 2h-40l-31 1v38l69 1 1 2-1 23-70 1 1 37 74 1 1 1v24l-2 1h-101l-1-1v-153z" fill="#FEFEFE"/>
<path transform="translate(729,763)" d="m0 0h101l2 2v18l-1 5-2 1-72 1-1 38 70 1v24l-1 1-69 1 1 36 7 1 67 1 1 1v23l-3 2h-100l-1-1v-154z" fill="#FEFEFE"/>
<path transform="translate(1611,763)" d="m0 0h118l2 1v18l-4 7-13 16-10 13-44 56-11 15-2 5h82l2 2v21l-2 2h-123l-1-3v-15l6-9 13-17 22-28 12-15 10-13 9-11 10-13 2-5-78-1-1-1v-24z" fill="#FEFEFE"/>
<path transform="translate(852,763)" d="m0 0h28l5 5 14 22 13 21 7 10 4-4 12-19 11-18 8-13 4-4h29l2 2-7 12-29 43-10 15-3 7 10 16 10 14 22 33 7 11-1 3h-30l-7-9-12-19-19-29-5 5-11 17-13 21-8 12-2 2h-31l1-5 7-11 10-14 29-44 1-6-19-29-10-15-11-16-9-14z" fill="#FEFEFE"/>
<path transform="translate(1016,763)" d="m0 0h43l17 1 12 3 13 7 9 9 6 12 2 16-2 12-6 12-4 5-10 7-13 5-13 2-15 1h-14v62l-2 2h-25l-1-3v-150zm30 26-5 2v33l1 4 4 1h22l12-3 8-7 2-7-1-10-4-6-5-4-12-3z" fill="#FEFEFE"/>
<path transform="translate(1404,763)" d="m0 0h121l3 1v24l-44 1-4 1-1 129h-27l-1-1-1-128-4-1-42-1-2-4v-18z" fill="#FEFEFE"/>
<path transform="translate(1550,762)" d="m0 0h27l2 1v157l-16 1h-13l-1-1-1-24v-58l1-75z" fill="#FEFEFE"/>
<path transform="translate(786,1011)" d="m0 0 6 1 3 7 8 31 2-3 5-17 5-15 4-1 3 2 9 27 2 7 3-7 8-29 6-2-1 7-10 35-3 7-3 1-5-6-6-18-4-11-8 25-4 9-4 1-4-5-7-25-5-19z" fill="#FEFEFE"/>
<path transform="translate(959,1012)" d="m0 0h16l7 2 4 4 1 2v9l-1 7 5 10-1 8-5 5-4 2-18 1-5-1-1-3v-45zm5 5v15l1 1h10l6-4 1-7-3-4-3-1zm0 22v17l3 1h9l6-2 3-3-1-9-3-3-4-1z" fill="#FEFEFE"/>
<path transform="translate(1639,1011)" d="m0 0 5 3 14 26 5 11 1 1 1-40h5v30l-1 19h-6l-5-6-16-32-2-1v38l-5 1-1-2v-45l1-2z" fill="#FEFEFE"/>
<path transform="translate(607,1012)" d="m0 0h18l7 2 5 8v7l-3 6-5 4 2 6 7 14v2l-5-1-6-7-7-12-8-2v21l-1 1h-5l-1-47zm6 5-1 1v13l1 2 4 1h8l5-3 1-2v-6l-2-4-4-2z" fill="#FEFEFE"/>
<path transform="translate(1151,1012)" d="m0 0h16l6 3 6 7 3 9v9l-2 8-5 8-8 5-4 1h-9l-8-3-7-8-3-9v-12l4-10 8-7zm3 5-7 4-4 6-2 8 1 9 4 7 6 5 2 1h10l6-3 4-5 2-5v-15l-3-6-6-5-2-1z" fill="#FEFEFE"/>
<path transform="translate(1295,1012)" d="m0 0h13l6 2 5 4 4 7 1 4v16l-5 10-8 6-5 1h-9l-8-3-7-8-3-7v-17l4-8 8-6zm0 5-7 5-4 8v14l5 8 6 4 3 1h9l7-4 5-8 1-11-2-9-4-5-5-3z" fill="#FEFEFE"/>
<path transform="translate(1567,1012)" d="m0 0h14l7 3 5 6 3 7v17l-5 10-8 6-5 1h-8l-8-3-7-8-3-8v-15l4-9 6-5zm1 5-6 4-4 8-1 4v10l3 7 5 5 4 2h10l7-4 4-6 1-4v-15l-3-6-5-4-2-1z" fill="#FEFEFE"/>
<path transform="translate(536,1012)" d="m0 0h32v5h-27l1 16 23 1v5l-1 1h-22v17h26v4h-33v-48z" fill="#FEFEFE"/>
<path transform="translate(1360,1012)" d="m0 0h6l1 33 2 8 5 3h8l4-2 2-4 1-10v-28l7 1v33l-3 9-5 5-5 2h-9l-8-4-4-5-2-7z" fill="#FEFEFE"/>
<path transform="translate(889,1012)" d="m0 0h31v5h-27v16h16l7 1v6h-23l1 16 25 1 1 3-1 1h-31l-1-47z" fill="#FEFEFE"/>
<path transform="translate(1718,1012)" d="m0 0h11l6 3 1 1v6l-10-5-6 1-1 1v9l4 3 10 4 5 4 2 4v9l-4 6-7 4h-10l-7-4-4-6v-5h4l3 5v2l6 2h7l5-5-2-8-8-5-10-4-3-4v-10l4-6z" fill="#FEFEFE"/>
<path transform="translate(327,1012)" d="m0 0h32v5l-29 1v14l2 1 24 1v5l-1 1h-24l1 16 26 1v4h-31l-1-7v-41z" fill="#FEFEFE"/>
<path transform="translate(1084,1011)" d="m0 0h7l7 3 2 3v4l-3 1-6-4h-8l-2 2v6l4 4 12 6 5 6 1 7-3 7-6 5-3 1h-9l-8-4-4-6 1-5 4 2 7 6 3 1h7l4-4v-6l-4-5-12-5-6-6-1-6 2-7 6-5z" fill="#FEFEFE"/>
<path transform="translate(470,1012)" d="m0 0h19l6 3 4 7-1 8-5 6-8 3-11 1-1 21h-5l-1-1v-45zm5 5-1 1v13l3 3h9l5-3 2-3-1-7-3-3-3-1z" fill="#FEFEFE"/>
<path transform="translate(429,1011)" d="m0 0 1 3-14 21 1 5 8 12 5 8-1 2-5-2-9-11-4-6-12 16-2 2h-4l2-6 11-16-2-6-11-18-1-3h5l5 5 9 13 4-4 8-12 2-2z" fill="#FEFEFE"/>
<path transform="translate(670,1012)" d="m0 0h39l1 4-3 1h-14v43l-5 1-1-4v-40h-16l-2-4z" fill="#FEFEFE"/>
<path transform="translate(1433,1012)" d="m0 0h38l1 2-1 2-3 1-12 1-1 7v15l-1 20-4 1-1-1v-42h-12l-5-2z" fill="#FEFEFE"/>
<path transform="translate(1221,1012)" d="m0 0 5 1 1 43 20 1v4h-25l-1-1z" fill="#FEFEFE"/>
<path transform="translate(1508,1012)" d="m0 0h6v23l-1 26h-5z" fill="#FEFEFE"/>
</svg>
