<?xml version="1.0" encoding="UTF-8"?>
<svg version="1.1" viewBox="0 0 2048 367" width="741" height="133" xmlns="http://www.w3.org/2000/svg">
<path transform="translate(53,44)" d="m0 0h145l6 5v6l-10 20-12 22-6 9-3 2-7-1-3-3-1-2v-7l8-16 8-17-125 1 10 18 17 28 17 29 15 25 16 26 14 24 12 19 15 26 17 28 8 14 4-5 11-17 14-24 13-22 13-21 15-26 13-21 15-25 17-28 12-21 10-17 5-10h-57l-8 13-13 23-15 25-17 29-8 13-5 4-8-1-4-5 1-7 9-16 15-25 13-23 9-15 15-26 6-7 3-1h85l5 4 1 2v6l-10 18-8 13-13 22-15 25-17 28-11 19-2 6 9 17 17 28 15 25 17 29 8 13v2h2l2-5 16-26 17-29 12-20 17-28 19-32 9-15 17-28 17-29 12-21 3-6h-58l-2 4-9 17-15 25-29 49-7 10-5 3-5-1-4-4-1-5 8-16 12-21 13-22 15-26 15-25 7-6h86l5 5v8l-14 24-17 29-12 19-17 29-9 15-17 28-13 22-17 28-13 22-9 15-17 29-6 9-5 3-5-1-5-5-10-16-10-17-32-54-11-18-7-11v-2h-3l-2 5-11 19-17 28-29 49-11 18-6 5-6-1-6-7-17-29-48-80-10-17-14-23-17-28-10-17-27-45-14-23-2-4 9-6 11-4z" fill="#FEFEFE"/>
<path transform="translate(531,86)" d="m0 0h22l3 4 16 54 9 32v2h2l1-6 6-17 16-48 4-11 5-3h11l4 3 16 47 11 35 3-8 17-58 7-23 3-3h21l1 3-14 48-15 49-7 24-4 6h-18l-3-1-5-13-11-33-10-29-2-5-2 2-18 55-7 21-3 3h-21l-4-11-8-27-12-40-14-47z" fill="#FEFEFE"/>
<path transform="translate(848,86)" d="m0 0h37l14 1 10 3 9 6 7 8 4 12v9l-3 10-8 11 5 5 8 10 4 11v14l-4 10-6 8-8 6-10 4-4 1-33 1h-21l-6-1-1-2v-125zm19 22-1 1v28l1 1 7 1h19l8-3 4-4 2-6-1-8-4-6-10-4zm5 50-6 1-1 8v13l1 11 2 2 7 1h21l9-3 5-5 2-7-1-10-7-8-5-2-9-1z" fill="#FEFEFE"/>
<path transform="translate(1904,84)" d="m0 0h18l14 3 14 7 12 11 7 11 5 13 2 9 1 17-3 19-5 12-6 10-5 6-11 8-11 5-15 3h-17l-16-4-13-7-11-11-7-12-4-11-2-13v-17l3-16 5-12 7-11 8-8 14-8zm0 22-9 3-10 9-6 12-3 16v13l3 14 5 10 8 8 8 4 9 2h11l10-3 8-5 7-8 5-13 1-5v-23l-3-12-7-12-9-7-9-3z" fill="#FEFEFE"/>
<path transform="translate(1467,86)" d="m0 0h36l18 2 10 4 9 7 6 8 3 7 1 12-2 10-5 9-5 6-11 7 2 7 26 42 3 5v3l-3 1h-21l-4-5-15-26-11-19-5-5h-10l-2 1-1 51-2 2-7 1h-13l-1-1-1-58v-67l2-3zm26 21-6 2-1 6v22l1 4 2 1h17l12-3 5-4 3-8-1-8-4-6-4-3-7-2z" fill="#FEFEFE"/>
<path transform="translate(1350,86)" d="m0 0h83l2 2v19l-2 1h-60l-1 32h55l3 1 1 13-1 7-2 1-55 1v30l60 1 2 4v15l-1 2-65 1h-19l-2-5v-123z" fill="#FEFEFE"/>
<path transform="translate(1010,86)" d="m0 0h77l4 2v19l-1 1h-61l-1 32h25l32 1 1 1v19l-1 1-56 1v30l60 1 2 3v17l-1 1-63 1h-21l-2-2v-126z" fill="#FEFEFE"/>
<path transform="translate(731,86)" d="m0 0h82l2 2v19l-1 1h-61l-1 32h52l5 1 1 2v18l-1 1-56 1v30l60 1 2 2v17l-1 2-82 1-3-1-1-3v-125z" fill="#FEFEFE"/>
<path transform="translate(1786,86)" d="m0 0h49l2 1v17l-8 11-11 13-9 12-11 14-12 15-13 17-5 7 6 1 62 1 1 1v18l-3 2h-100l-2-3v-11l4-8 13-16 11-14 12-15 20-26 9-13-10-1-53-1-2-3v-16l1-2z" fill="#FEFEFE"/>
<path transform="translate(1108,86)" d="m0 0h21l5 3 14 22 13 20 1 2 4-2 12-19 13-21 5-5h25l1 2-7 11-32 48-1 6 11 18 13 19 15 22v3l-3 1h-22l-7-8-13-21-11-16v-2h-4l-2 5-14 22-10 16-3 3-4 1h-21l-2-2 7-11 28-42 5-8-1-5-10-16-8-11-19-29-2-5z" fill="#FEFEFE"/>
<path transform="translate(1244,86)" d="m0 0h33l17 1 13 4 11 7 6 8 4 10v16l-4 10-4 6-9 8-14 5-6 1-26 1v50l-5 3h-18l-1-1v-127zm26 22-5 2v30h25l9-3 4-4 1-3v-9l-3-6-5-4-6-2-7-1z" fill="#FEFEFE"/>
<path transform="translate(1567,86)" d="m0 0h100l2 1 1 19-1 1-40 1-1 106-2 1-10 1h-9l-2-2-1-70-1-35-36-1-3-1-1-2v-10l1-7z" fill="#FEFEFE"/>
<path transform="translate(1687,85)" d="m0 0h23l1 1v129h-24l-1-1-1-124z" fill="#FEFEFE"/>
<path transform="translate(1050,264)" d="m0 0 6 1 2 6 4 15v7h2l1-7 6-14 2-5 5-1 3 3 5 15 2 9 5-14 3-14 7-1 1 4-8 29-4 8-1 1h-5l-4-5-4-12-2-7-4 12-6 12-5 1-3-2-5-16-6-22v-2z" fill="#FEFEFE"/>
<path transform="translate(1766,264)" d="m0 0h6l3 3 9 15 5 8 1-25 1-1h6l1 1v41l-5 1-4-2-14-23-1-1-1 25-7 1-1-1-1-25v-13z" fill="#FEFEFE"/>
<path transform="translate(1357,264)" d="m0 0h15l7 4 5 8 1 4v11l-5 10-8 5-4 1h-9l-8-4-6-8-2-6v-8l3-8 6-7zm4 7-4 2-5 9v7l5 8 3 2h9l6-5 1-3v-13l-3-5-4-2z" fill="#FEFEFE"/>
<path transform="translate(1194,264)" d="m0 0h16l7 3 3 5v8l-1 4 5 7v7l-5 6-5 2-6 1h-11l-4-2v-40zm10 7-1 1v9l1 1h8l2-1 1-5-2-4zm-1 18-1 7 1 3h10l2-1v-7l-2-2z" fill="#FEFEFE"/>
<path transform="translate(1479,264)" d="m0 0h14l7 4 6 10 1 4v8l-3 8-8 7-6 2h-8l-8-3-7-7-2-5v-11l3-8 5-6zm4 7-5 3-4 8v7l4 7 5 3h8l5-4 2-5v-12l-5-6-2-1z" fill="#FEFEFE"/>
<path transform="translate(1708,264)" d="m0 0h13l6 3 5 6 3 9v8l-3 8-4 5-5 3-4 1h-9l-9-4-5-6-2-6v-11l3-8 4-5zm2 7-6 5-1 2v15l5 6 9 1 5-3 4-5 1-3v-11l-3-5-4-2z" fill="#FEFEFE"/>
<path transform="translate(898,264)" d="m0 0h18l6 3 3 5v9l-4 5-2 1 2 6 6 10v3h-7l-5-5-6-10v-2l-4-1 1 6v9l-1 3h-8v-41zm8 8-1 6 2 3h9l1-1-1-7-2-1z" fill="#FEFEFE"/>
<path transform="translate(840,264)" d="m0 0h24l1 1v6l-1 1h-17v9l17 1 1 1v6h-18v10h18v7l-8 1h-18l-2-1v-14l1-27z" fill="#FEFEFE"/>
<path transform="translate(1535,264)" d="m0 0h10l1 30 2 3h11l1-7 1-26 8 1v19l-1 11-4 8-5 3-4 1h-7l-7-3-4-5-2-5z" fill="#FEFEFE"/>
<path transform="translate(661,264)" d="m0 0h23l1 1v6l-1 1h-19v10h19v7h-18v10h19l1 3-1 4-5 1h-23v-41z" fill="#FEFEFE"/>
<path transform="translate(1135,264)" d="m0 0h25l1 1v6l-3 1h-16v10h18v7h-18v10h18l1 1v6h-27l-1-1v-20l1-20z" fill="#FEFEFE"/>
<path transform="translate(715,264)" d="m0 0 9 1 8 13 4-5 5-8 7-1 1 4-10 16 2 5 9 15v2h-6l-7-6-4-6-2-1-2 5-5 7-2 1h-7v-4l10-15-1-5-9-15z" fill="#FEFEFE"/>
<path transform="translate(1295,264)" d="m0 0h11l6 3 1 6-2 2-5-1-3-2h-5l1 6 8 4 7 4 3 4v7l-7 8-5 2h-7l-7-3-4-4-1-6 3-2 5 1 5 5 5 1 3-2-2-6-14-7-3-3-1-6 3-7z" fill="#FEFEFE"/>
<path transform="translate(1836,264)" d="m0 0h11l6 3 1 5-3 3-4-2-7-1v6l14 7 4 6v6l-4 6-3 3-3 1h-9l-7-3-4-5v-6l2-2 6 1 2 5 4 2 5-1 1-5-5-4-9-4-5-4v-9l4-6z" fill="#FEFEFE"/>
<path transform="translate(785,264)" d="m0 0h13l7 3 3 5v9l-4 5-4 2-11 1-2 16-1 1h-6l-1-1 1-30 1-10zm4 8v9h9l1-1v-6l-2-2z" fill="#FEFEFE"/>
<path transform="translate(954,264)" d="m0 0h23l9 1v5l-2 1h-10v24l-1 11-7 1-2-2v-15l1-18-11-1-1-1v-5z" fill="#FEFEFE"/>
<path transform="translate(1596,264)" d="m0 0h22l10 1 1 3-1 2-11 1-1 32-2 4-7-1v-19l1-15h-9l-4-2v-5z" fill="#FEFEFE"/>
<path transform="translate(1416,264)" d="m0 0h7l1 35h15l1 1v6l-22 1-4-1v-41z" fill="#FEFEFE"/>
<path transform="translate(1657,264)" d="m0 0h6l2 1v37l-2 5-7-1v-41z" fill="#FEFEFE"/>
<path transform="translate(1829,283)" d="m0 0" fill="#FEFEFE"/>
</svg>
